<svg xmlns="http://www.w3.org/2000/svg" width="16" height="16"><style type="text/css">.icon-canvas-transparent{opacity:0;fill:#F6F6F6;} .icon-vs-out{fill:#F6F6F6;} .icon-vs-bg{fill:#424242;}</style><path class="icon-canvas-transparent" d="M16 16h-16v-16h16v16z" id="canvas"/><path class="icon-vs-out" d="M16 7.578v2.334l-.474.876c-.679 1.255-1.523 2.676-2.969 3.646l-1.56 1.048s-2.133.518-3.18.518c-.206 0-.577-.012-.817-.029v.029h-.232l-.269-.072-.499-.046v-.089l-.261-.07c-2.014-.543-3.696-1.864-4.738-3.72l-.063-.111-.058.023-.151-.397-.283-.505.079-.032-.008-.021c-.342-.896-.515-1.828-.517-2.768v-.021c.001-.912.167-1.829.493-2.728l.013-.034-.073-.03.257-.476.162-.446.064.027.04-.075c.825-1.533 2.085-2.704 3.643-3.385l.44-.193.007-.831h4.927v4.978h1.007v-3.076l5.02 5.676z" id="outline"/><path class="icon-vs-bg" d="M10.5 7l-3.039 2.998-2.961-2.998h1.5l.038-6h2.962v6h1.5zm-5.5-1.845v-3.216c-1.371.6-2.465 1.646-3.164 2.943l2.523 1.058c.18-.286.385-.555.641-.785zm-1.272 3.027c0-.475.088-.92.222-1.342l-2.516-1.055c-.272.747-.434 1.549-.434 2.397 0 .854.164 1.669.451 2.423l2.537-1.027c-.16-.438-.26-.904-.26-1.396zm.707 2.295l-2.562 1.037c.886 1.577 2.342 2.761 4.127 3.243v-2.894c-.657-.315-1.159-.789-1.565-1.386zm3.383 1.796c-.196 0-.629-.031-.818-.058v2.754c.204.018.609.031.818.031.971 0 2.346-.634 3.182-1v-3c-.726.654-2.131 1.273-3.182 1.273zm7.182-3.719l-3-3.159v1.647h-.018l-3.107 2.958h3.125v1.482l3-2.928z" id="iconBg"/></svg>